<?xml version="1.0" encoding="UTF-8"?>
<svg id="Layer_1" xmlns="http://www.w3.org/2000/svg" version="1.1" viewBox="0 0 250 100">
  <!-- Generator: Adobe Illustrator 29.0.1, SVG Export Plug-In . SVG Version: 2.1.0 Build 192)  -->
  <defs>
    <style>
      .st0 {
        fill: #f5f6fc;
      }
    </style>
  </defs>
  <g>
    <path class="st0" d="M74.9,62.44c-1.4.82-3.04,1.24-4.87,1.24-1.96,0-3.72-.47-5.25-1.38-1.53-.92-2.74-2.24-3.58-3.92-.85-1.68-1.28-3.65-1.28-5.86s.43-4.22,1.28-5.89c.85-1.67,2.06-2.98,3.58-3.9,1.53-.92,3.29-1.38,5.25-1.38,1.83,0,3.47.41,4.87,1.21,1.38.79,2.47,1.99,3.24,3.55h7.37c-1.11-3.23-3.04-5.8-5.74-7.64-2.76-1.88-6.02-2.83-9.69-2.83-3.13,0-6,.72-8.53,2.15-2.52,1.43-4.54,3.44-6,6-1.46,2.55-2.2,5.49-2.2,8.72s.74,6.16,2.2,8.7c1.46,2.54,3.48,4.55,6,5.97,2.52,1.43,5.39,2.15,8.53,2.15,3.7,0,6.97-.95,9.71-2.81,2.68-1.82,4.61-4.4,5.71-7.66h-7.37c-.77,1.57-1.86,2.77-3.24,3.58Z"/>
    <path class="st0" d="M108.57,42.94v4.08l-.28-.37c-.87-1.19-2.05-2.18-3.5-2.96-1.45-.78-3.17-1.17-5.1-1.17-2.22,0-4.25.55-6.05,1.65-1.79,1.09-3.24,2.68-4.28,4.71-.53,1.02-.92,2.12-1.18,3.29-.26,1.17-.4,2.42-.4,3.74,0,2.67.53,5.06,1.58,7.11,1.05,2.05,2.49,3.66,4.28,4.78,1.79,1.12,3.81,1.69,6,1.69,1.94,0,3.67-.4,5.15-1.2,1.48-.79,2.66-1.81,3.5-3.03l.28-.4v4.2h6.42v-26.11h-6.42ZM107.6,60.24c-.65,1.18-1.53,2.09-2.63,2.73-1.1.63-2.3.95-3.55.95s-2.41-.33-3.49-.98c-1.08-.65-1.97-1.59-2.63-2.8-.66-1.21-1-2.64-1-4.24s.34-3.02,1-4.2c.66-1.18,1.54-2.09,2.61-2.71,1.07-.61,2.25-.92,3.51-.92s2.46.32,3.55.95c1.1.63,1.99,1.55,2.63,2.73.32.59.57,1.24.73,1.95.16.71.24,1.48.24,2.3,0,1.64-.33,3.06-.97,4.24Z"/>
    <path class="st0" d="M120.04,31.03v38.01h6.37V31.03h-6.37Z"/>
    <path class="st0" d="M151.19,42.94v4.08l-.27-.37c-.87-1.19-2.05-2.18-3.5-2.96-1.45-.78-3.16-1.17-5.1-1.17-2.22,0-4.25.55-6.04,1.65-1.8,1.09-3.24,2.68-4.28,4.71-.52,1.02-.92,2.12-1.18,3.29-.26,1.17-.4,2.42-.4,3.74,0,2.67.53,5.06,1.58,7.11,1.05,2.05,2.49,3.66,4.28,4.78,1.79,1.12,3.81,1.69,6,1.69,1.93,0,3.67-.4,5.15-1.2,1.48-.79,2.66-1.81,3.5-3.03l.28-.4v4.2h6.42v-26.11h-6.42ZM150.22,60.24c-.64,1.18-1.53,2.09-2.63,2.73-1.1.63-2.3.95-3.55.95s-2.41-.33-3.49-.98c-1.08-.65-1.97-1.59-2.63-2.8-.66-1.21-.99-2.64-.99-4.24s.33-3.02.99-4.2c.66-1.18,1.54-2.09,2.61-2.71,1.07-.61,2.25-.92,3.51-.92s2.46.32,3.55.95c1.1.63,1.99,1.55,2.63,2.73.32.59.57,1.24.73,1.95.16.71.25,1.48.25,2.3,0,1.64-.33,3.06-.97,4.24Z"/>
    <path class="st0" d="M173.81,64.06c-1.95,0-3.51-.72-4.65-2.13-1.13-1.4-1.7-3.4-1.7-5.93s.57-4.58,1.7-5.98c1.14-1.41,2.7-2.13,4.65-2.13,1.36,0,2.52.34,3.45,1.01.9.65,1.56,1.54,1.95,2.66h6.9c-.74-2.82-2.15-5.04-4.21-6.62-2.11-1.61-4.81-2.42-8.04-2.42-2.5,0-4.76.56-6.69,1.67-1.94,1.11-3.48,2.69-4.57,4.71-.55,1.01-.96,2.11-1.23,3.3-.28,1.19-.42,2.46-.42,3.81,0,2.69.56,5.08,1.65,7.1,1.09,2.02,2.63,3.6,4.57,4.71,1.94,1.11,4.19,1.67,6.69,1.67,3.19,0,5.89-.84,8.01-2.49,2.08-1.62,3.5-3.82,4.24-6.55h-6.89c-.86,2.41-2.68,3.62-5.4,3.62Z"/>
    <path class="st0" d="M214.53,48.92c-1.17-2.03-2.8-3.62-4.83-4.73-2.03-1.11-4.34-1.68-6.84-1.68s-4.8.56-6.84,1.68c-2.03,1.11-3.66,2.7-4.83,4.73-1.17,2.03-1.77,4.41-1.77,7.08s.58,5.04,1.72,7.08c1.14,2.03,2.73,3.62,4.73,4.73,1,.56,2.07.97,3.2,1.25,1.14.28,2.34.42,3.59.42,2.54,0,4.86-.56,6.91-1.67,2.05-1.11,3.69-2.7,4.9-4.74,1.2-2.03,1.82-4.41,1.82-7.07s-.59-5.04-1.77-7.08ZM208.77,60.36c-.65,1.19-1.53,2.11-2.61,2.71-1.08.6-2.25.9-3.48.9-1.94,0-3.58-.7-4.86-2.07-1.28-1.37-1.92-3.36-1.92-5.9s.66-4.52,1.97-5.9c1.31-1.37,2.96-2.07,4.9-2.07s3.61.7,4.95,2.07c1.34,1.37,2.02,3.36,2.02,5.9,0,1.7-.33,3.17-.97,4.36Z"/>
    <path class="st0" d="M234.02,48.12v-5.18h-5.91v-11.91h-6.42v11.91h-3.15v5.18h3.15v12.88c0,5.42,2.71,8.05,8.29,8.05h4.04v-5.32h-2.95c-1.07,0-1.81-.21-2.27-.64-.46-.42-.69-1.11-.69-2.04v-12.93h5.91Z"/>
  </g>
  <path class="st0" d="M44.15,61.95l-12.29,7.12-9.53-5.52-5.8-3.36-.55-.32v-19.63l6.35-3.68,10.42-6.03,10.54,6.1-18.2,10.54-2.76-1.6v11.27l6.49-3.76,15.32,8.87Z"/>
</svg>