<?xml version="1.0" encoding="UTF-8"?>
<svg id="Layer_1" xmlns="http://www.w3.org/2000/svg" version="1.1" viewBox="0 0 250 100">
  <!-- Generator: Adobe Illustrator 29.0.1, SVG Export Plug-In . SVG Version: 2.1.0 Build 192)  -->
  <defs>
    <style>
      .st0 {
        fill: #ffc919;
      }
    </style>
  </defs>
  <g>
    <path class="st0" d="M74.44,62.55c-1.41.83-3.07,1.25-4.91,1.25-1.98,0-3.76-.47-5.3-1.39-1.54-.92-2.76-2.26-3.62-3.96-.86-1.7-1.29-3.69-1.29-5.92s.43-4.26,1.29-5.94c.86-1.68,2.07-3.01,3.62-3.93,1.54-.92,3.32-1.39,5.3-1.39,1.84,0,3.5.41,4.91,1.22,1.39.8,2.49,2,3.26,3.59h7.44c-1.12-3.26-3.07-5.85-5.79-7.71-2.79-1.9-6.08-2.86-9.78-2.86-3.16,0-6.06.73-8.61,2.17-2.55,1.44-4.58,3.48-6.05,6.05-1.47,2.58-2.22,5.54-2.22,8.8s.75,6.21,2.22,8.78c1.47,2.56,3.51,4.59,6.05,6.03,2.54,1.44,5.44,2.17,8.61,2.17,3.74,0,7.04-.95,9.8-2.84,2.71-1.84,4.65-4.44,5.77-7.73h-7.44c-.78,1.58-1.87,2.8-3.26,3.61Z"/>
    <path class="st0" d="M108.42,42.87v4.11l-.28-.37c-.88-1.2-2.07-2.2-3.53-2.99-1.46-.79-3.19-1.18-5.15-1.18-2.24,0-4.29.56-6.1,1.66-1.81,1.1-3.26,2.7-4.32,4.75-.53,1.02-.93,2.14-1.19,3.32-.27,1.18-.4,2.45-.4,3.77,0,2.69.54,5.1,1.6,7.17,1.06,2.07,2.51,3.69,4.32,4.82,1.81,1.14,3.85,1.71,6.05,1.71,1.95,0,3.7-.4,5.2-1.21,1.49-.8,2.68-1.83,3.53-3.06l.28-.4v4.23h6.48v-26.35h-6.48ZM107.44,60.33c-.65,1.19-1.55,2.11-2.66,2.75-1.11.64-2.32.96-3.59.96s-2.43-.33-3.52-.98c-1.09-.65-1.99-1.6-2.65-2.83-.67-1.22-1.01-2.66-1.01-4.28s.34-3.05,1.01-4.23c.67-1.19,1.55-2.11,2.63-2.73,1.08-.62,2.27-.93,3.54-.93s2.48.32,3.59.96c1.11.64,2,1.56,2.66,2.76.33.59.57,1.25.74,1.97.16.71.25,1.49.25,2.32,0,1.65-.33,3.09-.98,4.28Z"/>
    <path class="st0" d="M120,30.86v38.36h6.43V30.86h-6.43Z"/>
    <path class="st0" d="M151.43,42.87v4.11l-.28-.37c-.88-1.2-2.07-2.2-3.53-2.99-1.46-.79-3.19-1.18-5.15-1.18-2.24,0-4.29.56-6.1,1.66-1.81,1.1-3.27,2.7-4.32,4.75-.53,1.02-.93,2.14-1.19,3.32-.27,1.18-.4,2.45-.4,3.77,0,2.69.54,5.1,1.6,7.17,1.06,2.07,2.51,3.69,4.32,4.82,1.81,1.14,3.85,1.71,6.05,1.71,1.95,0,3.7-.4,5.19-1.21,1.49-.8,2.68-1.83,3.53-3.06l.28-.4v4.23h6.48v-26.35h-6.48ZM150.45,60.33c-.65,1.19-1.55,2.11-2.66,2.75-1.11.64-2.32.96-3.59.96s-2.43-.33-3.52-.98c-1.09-.65-1.99-1.6-2.65-2.83-.67-1.22-1-2.66-1-4.28s.34-3.05,1-4.23c.67-1.19,1.56-2.11,2.63-2.73,1.08-.62,2.27-.93,3.54-.93s2.48.32,3.59.96c1.11.64,2,1.56,2.66,2.76.33.59.57,1.25.73,1.97.17.71.25,1.49.25,2.32,0,1.65-.33,3.09-.98,4.28Z"/>
    <path class="st0" d="M174.26,64.19c-1.97,0-3.54-.72-4.69-2.15-1.14-1.42-1.72-3.43-1.72-5.99s.58-4.62,1.72-6.04c1.15-1.43,2.72-2.15,4.69-2.15,1.37,0,2.54.34,3.48,1.02.91.65,1.57,1.56,1.97,2.69h6.96c-.74-2.84-2.17-5.09-4.25-6.68-2.13-1.62-4.85-2.45-8.11-2.45-2.53,0-4.8.57-6.75,1.69-1.95,1.12-3.51,2.72-4.61,4.75-.55,1.02-.97,2.13-1.25,3.33-.28,1.2-.42,2.48-.42,3.84,0,2.72.56,5.13,1.67,7.17,1.1,2.03,2.65,3.63,4.61,4.75,1.95,1.12,4.23,1.69,6.75,1.69,3.22,0,5.94-.85,8.09-2.52,2.1-1.63,3.53-3.85,4.27-6.61h-6.96c-.87,2.43-2.7,3.66-5.45,3.66Z"/>
    <path class="st0" d="M215.36,48.91c-1.18-2.05-2.82-3.66-4.87-4.78-2.05-1.12-4.38-1.69-6.9-1.69s-4.85.57-6.9,1.69c-2.05,1.12-3.69,2.72-4.87,4.78-1.18,2.05-1.79,4.45-1.79,7.14s.59,5.09,1.74,7.14c1.15,2.05,2.76,3.66,4.78,4.78,1.01.56,2.09.98,3.23,1.26,1.15.28,2.36.42,3.62.42,2.56,0,4.91-.57,6.97-1.69,2.06-1.12,3.73-2.73,4.94-4.78,1.22-2.05,1.83-4.45,1.83-7.14s-.6-5.09-1.78-7.14ZM209.54,60.45c-.65,1.21-1.54,2.13-2.64,2.73-1.09.6-2.27.91-3.51.91-1.96,0-3.61-.7-4.9-2.09-1.29-1.39-1.94-3.39-1.94-5.95s.67-4.57,1.99-5.95c1.32-1.39,2.99-2.09,4.95-2.09s3.64.7,4.99,2.09c1.36,1.39,2.04,3.39,2.04,5.95,0,1.72-.33,3.2-.98,4.4Z"/>
    <path class="st0" d="M235.02,48.1v-5.23h-5.97v-12.02h-6.47v12.02h-3.18v5.23h3.18v13c0,5.46,2.73,8.12,8.36,8.12h4.08v-5.37h-2.97c-1.08,0-1.83-.21-2.3-.64-.46-.43-.7-1.12-.7-2.06v-13.05h5.97Z"/>
  </g>
  <path class="st0" d="M43.4,62.06l-12.4,7.18-9.61-5.57-5.85-3.39-.56-.32v-19.81l6.41-3.71,10.52-6.09,10.63,6.16-18.36,10.64-2.78-1.61v11.37l6.55-3.79,15.46,8.96Z"/>
</svg>